<svg width="24" height="24" viewBox="0 0 24 24" fill="none" xmlns="http://www.w3.org/2000/svg">
<path d="M2.00001 17.0449C1.99926 17.2405 2.05185 17.4327 2.15212 17.6007C2.25238 17.7687 2.39654 17.9063 2.56909 17.9985C2.73871 18.1001 2.93274 18.1538 3.13049 18.1538C3.32824 18.1538 3.52227 18.1001 3.69189 17.9985L11.5053 12.9229C11.6577 12.8255 11.7832 12.6914 11.8701 12.5328C11.957 12.3742 12.0025 12.1962 12.0025 12.0154C12.0025 11.8345 11.957 11.6566 11.8701 11.498C11.7832 11.3394 11.6577 11.2053 11.5053 11.1079L3.69189 6.00154C3.52227 5.89989 3.32824 5.84619 3.13049 5.84619C2.93274 5.84619 2.73871 5.89989 2.56909 6.00154C2.39654 6.09378 2.25238 6.2313 2.15212 6.39931C2.05185 6.56733 1.99926 6.75949 2.00001 6.95515V17.0449Z" stroke="white" stroke-width="2" stroke-linecap="round" stroke-linejoin="round"/>
<path d="M11.9974 17.0449C11.9967 17.2405 12.0493 17.4327 12.1496 17.6007C12.2498 17.7687 12.394 17.9063 12.5665 17.9985C12.7361 18.1001 12.9302 18.1538 13.1279 18.1538C13.3257 18.1538 13.5197 18.1001 13.6893 17.9985L21.5027 12.9229C21.6552 12.8255 21.7806 12.6914 21.8675 12.5328C21.9544 12.3742 22 12.1962 22 12.0154C22 11.8345 21.9544 11.6566 21.8675 11.498C21.7806 11.3394 21.6552 11.2053 21.5027 11.1079L13.6893 6.00154C13.5197 5.89989 13.3257 5.84619 13.1279 5.84619C12.9302 5.84619 12.7361 5.89989 12.5665 6.00154C12.3985 6.09128 12.2573 6.22398 12.1573 6.3861C12.0574 6.54823 12.0022 6.73397 11.9974 6.92439V17.0449Z" stroke="white" stroke-width="2" stroke-linecap="round" stroke-linejoin="round"/>
</svg>
