<svg width="24" height="24" viewBox="0 0 24 24" fill="none" xmlns="http://www.w3.org/2000/svg">
<path d="M8.30769 4H5.23077C4.55103 4 4 4.55103 4 5.23077V18.7692C4 19.449 4.55103 20 5.23077 20H8.30769C8.98742 20 9.53846 19.449 9.53846 18.7692V5.23077C9.53846 4.55103 8.98742 4 8.30769 4Z" stroke="white" stroke-width="2" stroke-linecap="round" stroke-linejoin="round"/>
<path d="M18.7692 4H15.6923C15.0126 4 14.4615 4.55103 14.4615 5.23077V18.7692C14.4615 19.449 15.0126 20 15.6923 20H18.7692C19.449 20 20 19.449 20 18.7692V5.23077C20 4.55103 19.449 4 18.7692 4Z" stroke="white" stroke-width="2" stroke-linecap="round" stroke-linejoin="round"/>
</svg>
