<svg width="24" height="24" viewBox="0 0 24 24" fill="none" xmlns="http://www.w3.org/2000/svg">
<path d="M12 22C17.5228 22 22 17.5228 22 12C22 6.47715 17.5228 2 12 2C6.47715 2 2 6.47715 2 12C2 17.5228 6.47715 22 12 22Z" stroke="white" stroke-width="2" stroke-linecap="round" stroke-linejoin="round"/>
<path d="M12 18.9233C15.8235 18.9233 18.9231 15.8237 18.9231 12.0002C18.9231 8.17672 15.8235 5.07715 12 5.07715C8.17647 5.07715 5.0769 8.17672 5.0769 12.0002C5.0769 15.8237 8.17647 18.9233 12 18.9233Z" stroke="white" stroke-width="2" stroke-linecap="round" stroke-linejoin="round"/>
<path d="M5.24524 10.4614H18.7533" stroke="white" stroke-width="2" stroke-linecap="round" stroke-linejoin="round"/>
<path d="M12 15.0768L8.15381 10.4614H15.8461L12 15.0768Z" stroke="white" stroke-width="2" stroke-linecap="round" stroke-linejoin="round"/>
<path d="M12 15.0771V18.9233" stroke="white" stroke-width="2" stroke-linecap="round" stroke-linejoin="round"/>
</svg>
